Coordinates
version=1
nRows=26
nColumns=24
inDegrees=yes

Units are S.I. units (second, meters, Newtons, ...)
If the header above contains a line with 'inDegrees', this indicates whether rotational values are in degrees (yes) or radians (no).

endheader
time	pelvis_tilt	pelvis_list	pelvis_rotation	pelvis_tx	pelvis_ty	pelvis_tz	hip_flexion_r	hip_adduction_r	hip_rotation_r	knee_angle_r	ankle_angle_r	subtalar_angle_r	mtp_angle_r	hip_flexion_l	hip_adduction_l	hip_rotation_l	knee_angle_l	ankle_angle_l	subtalar_angle_l	mtp_angle_l	lumbar_extension	lumbar_bending	lumbar_rotation
1.5	5.124354410630065	2.1069699429631945	-2.176647100205116	1.1449831717741858	0.8951153293095517	4.01916834092844	4.437167613769741	-7.967460046676814	-5.110121050103349	-65.25505750060833	-0.8441296130688327	-0.29588590873950427	-0.4763143168080676	5.876377377817072	3.1014671418941884	-2.264365195791986	-16.551773986354277	1.5595544496993705	3.627660200956469	-1.4214277111092293	-16.759081312009865	-6.063186157168628	-5.842106843061021
1.517	5.339598442939858	2.2610460310403977	-2.4257750276668424	-2.9570033779998193	0.6509197939244284	1.3984025100159536	5.752352352584234	-4.576665780255038	-6.115136668343744	-67.34275881500056	-1.4815251908255778	1.9400387582635743	-0.712574924375393	4.028305954216476	5.299603211984051	-6.262034144217486	-13.820386929778012	3.823908005995446	-0.5991490940565924	-1.348248453696379	-18.099612081708173	-7.334079537929139	-2.045935081624177
1.533	4.512717520072568	-1.2818868348545083	-1.640490321023331	-0.32389333469132353	-0.3304512383194971	-0.219165708250995	10.83027652356037	-7.162278090849696	-7.138766036612505	-70.2611449324119	-2.5240095198107046	-2.386464584410361	3.572268324939863	4.274651488931555	4.5375685456496395	-2.7621297730101166	-13.46117956243289	4.623369542802777	2.551988993774521	1.1238633941546734	-15.39799918089108	-2.44746989277322	-6.32132107439972
1.55	6.66125229218867	3.523154224351031	-1.006369108034757	-1.5047457191980036	-0.679230851616903	2.208935511587991	12.04994557514647	-6.577752463120781	-9.280877865183669	-69.04564931015211	1.194031253998951	-0.8147470011317454	2.6259185557356677	-1.1325540779522723	2.3956937168735775	-0.19124485136358005	-13.399815946422635	0.406547514843691	-0.7294708168691155	2.911636421199814	-13.179020734955358	-1.9853469473244123	-3.1613049764119427
1.567	6.530590474265877	2.1607027136162866	-1.437558108647405	-0.6539853517526244	4.310266975512416	1.0651402998872828	12.593025862345213	-2.9840508016649814	-8.213031716427476	-64.57787232737655	0.4137505037896214	2.2868910580721282	0.7820951098196024	-1.3474122001144597	2.3800664003549965	0.777628725667968	-10.742250747108216	4.626605576440165	-1.0733284806459709	-1.547650027391812	-15.047302450582308	-1.0631605829167619	-4.121194842678733
1.583	8.805915638855408	-1.0334430957057625	-1.4662966144376992	0.7264029527588135	2.7098097750368497	-0.554968473061071	18.33229086587677	-7.779229431577753	-8.934859915598587	-62.75700772644305	0.46586981444836195	1.8092337671295993	4.188417636640974	0.21164655860487636	0.8722220229935335	-3.5506002548039506	-9.40593793060181	5.748659503962422	-3.9746931413609548	1.3173587952873818	-13.287690033773622	0.4203764838075794	-6.825616010770975
1.6	5.665686565413605	-0.542669895062887	-1.348144751712807	-0.6996572658267907	2.9016156376186446	-1.2225763289398182	16.30361632704808	-4.896779013390857	-6.848872227495072	-65.45364737668743	2.34723690826466	-0.9795127846388147	0.921190980457865	-2.074860922272546	-2.1156214844861507	2.003399488966222	-10.826716400671595	0.40225377914472915	-4.160062184850784	-0.6711189213804449	-16.9007901289589	0.6458830186964093	-3.9699128411685134
1.617	4.331125086234517	-4.586506220954492	2.1598446601295165	2.548954039865051	2.0599397871838345	1.9381660328585733	18.472828257961226	-5.333789297460904	-7.711065064267164	-55.96081784973374	3.6631791393197273	0.586095759540347	-1.509259948450666	-5.060143241130371	1.246223358625196	-1.8197860577267984	-6.0806551356651575	7.8881591106033655	-0.44895358829898235	0.7963701359107452	-18.42824269997273	-1.7586243478431536	-7.713570895410291
1.633	6.892278032453241	-0.5583087879625745	-0.24643033107944395	-0.17727422654832647	1.6122581285380644	1.991211156879665	20.354750674329175	-4.719790453801312	-9.393865200321663	-57.39452143981766	0.4180187740539556	3.1724604596349395	3.298717319667262	-7.595159979393079	3.571980102599347	4.311170029513852	-7.48796629292477	5.840354484447496	-0.07864726420528671	3.0259102352782845	-16.755059212169062	-0.4565438426305254	-6.136918407699582
1.65	5.024144938511624	-1.4080057847068748	-2.437255035186057	1.1822203069579924	1.6167948419479847	1.573064648550546	23.668555410334932	-3.213386698408957	-8.414682389552404	-52.35214784729403	4.509213261641134	0.971070503900416	0.9562481025719943	-2.4860762070039266	5.127959793391218	0.9691043262712598	-5.343898087359371	6.569285071749703	2.268471336623958	-0.6281138606239794	-18.854412938791533	0.7690826068989174	-6.798882751029068
1.667	7.505543654277394	-2.1456263642441122	-1.551290529264874	-2.3059026411516648	3.1810463486611056	0.8451837734975142	24.79671531526833	-6.10054758309484	-12.0761907434486	-44.82336607810856	2.7132809649251106	-0.407565218830427	0.11456283361761856	-8.869758851695318	3.627799212954792	2.033908138391378	-5.764492510272204	8.465897727126555	0.32193184630700705	1.6631029109874707	-14.612702587470942	1.1250060238196418	-7.35595468697314
1.683	4.765420829027235	-1.6442923677932537	-2.180034504136023	3.027738673622132	1.577215734748902	0.8762359823936295	15.860865731862141	-3.178182389600021	-12.521381845952078	-40.00849460550182	2.447594700441183	-2.337170288521787	-1.6264005948260085	-9.859500307621074	0.8666455758058638	0.4253574092195013	-5.6620017045628845	8.070306884026548	2.366054917102799	-0.5305907992724384	-18.892909796794733	0.39355271622622423	-7.034422062405538
1.7	6.596600572638055	-0.9809134068155877	1.3794622259691058	-0.25914460307317166	-0.3064519076715426	1.8324021079651724	17.68008715082808	-3.832200099690892	-10.645322490822027	-32.095325465464725	0.6430576070909342	-0.10476080020254774	0.6573827571766262	-6.953358633420799	3.353495640470051	2.1866414266116387	-1.3759858007006938	8.018935623032561	3.252351155400242	2.7064218951977654	-16.82370481264943	-0.6911231491187065	-3.773510662941304
1.717	4.4512075504083635	-0.0935963946256003	0.4426264848304159	0.9052209381623676	1.4494749865886953	-2.110942289039895	20.211829054036933	-3.0319691897459524	-12.131603535295412	-27.225599712286005	-0.3208005404917238	1.1929652405679447	0.920097090384721	-13.49641803227092	1.1634125633249988	0.3746939053500249	-3.544829231165414	7.3120859008696275	1.1253359391167013	-1.7254343996909303	-15.454508982469488	-3.079232231462302	-7.975689702710382
1.733	4.731966542631326	-1.1350933587399201	-3.494721435282188	0.5146389427795508	2.3033254776498273	3.292629462898593	17.962169827742798	-6.210430042842485	-7.707309269229425	-18.5691142834448	1.3856953766410554	2.2981669228805095	-1.2018121832260904	-12.398409375680066	4.975744315706225	2.556311683696602	-3.4115765487670715	8.069979660699811	-0.9616323299546384	-0.15197766362803633	-17.890283753544587	0.9218644027026901	-3.9491286429767416
1.75	4.983878571803798	3.827662673305282	-1.6051870267013648	3.1991662366755476	3.6114039014340538	-4.963030270452555	18.200695000117086	-4.249921763230265	-10.698214871754711	-11.657289558936554	1.8960660110390581	-0.4360984783956752	-5.443959628782265	-16.87090686484268	4.736835593885802	0.33753304852873955	-1.33937366432586	13.122648632653975	-0.16185800859570074	0.6490224032946242	-16.436543831434093	-4.974015623360014	-7.878873161710257
1.767	4.827306062060442	1.1813588118244507	-0.22106342988358343	-2.1020209342044174	3.2108837902952594	-0.6769868699470137	16.92416948647179	-1.9847553284079753	-7.474936294977053	-6.134190763701557	0.013276014021103233	3.6396393212704132	-0.761920947418354	-16.9149154768542	5.871448142793412	0.43672816211965015	-3.2151134294485124	9.741151742601003	3.494643015823678	2.4031959157905307	-16.076289169501216	-2.191677192734418	-4.770367347409758
1.783	4.7630064361651305	1.292915559152299	1.684265778711973	-4.4473866018393595	2.4677080889959	-1.6111361666913666	15.897324200036266	-4.325328724682519	-2.2094299563123556	-4.613750139082141	2.559186657825241	-0.09949695742631796	-0.24175164725185797	-14.785166729970674	7.4131992993343125	3.0680814039552864	-3.295655784454638	12.081302206200974	-4.39154794814457	-0.5269407419603359	-17.74671528036699	-5.115982291266303	-9.29810329459037
1.8	5.8597282404962145	3.88932241885956	-0.6328916103638199	-2.0659018354101693	0.5878617226804643	-1.2057182712740078	17.903926222958006	-1.483043351069866	-5.989123997265002	-3.0252508653173447	1.6625880192624605	-4.059639909340155	-1.880957768053271	-16.286237526398224	6.09743967097178	1.123128290810811	-1.3813883677677414	10.694367978791629	-4.087134825479788	-2.9988038807353496	-17.204961021905092	-1.8767083715252626	-4.433065367680875
1.817	4.899558809020536	3.4313011126296944	2.865038790914767	0.24796945534143439	-1.3770401032802086	-1.4735646935011204	17.78317301772584	-3.8197513156340737	-6.239950164070973	-3.652426738755458	2.541790480391476	0.5570456657848005	-1.4032411021736215	-19.46938243505791	4.678892570484406	4.6464140954388835	-2.0771593323340514	13.188317747404536	2.0793380314156935	0.9387528409685592	-20.239488281150624	-5.097998043187868	-6.588521155975785
1.833	9.414606522380346	1.1772404018307367	1.6312089429699324	0.27407917114014557	0.6274158634023518	0.8071318773051039	19.565740325683002	-5.428767492436083	-0.7086899368472355	0.5618485792794019	1.3798882335204499	-2.9758305567302976	0.15777780210246836	-19.41070819117478	7.168471198953991	7.809944117191585	-6.318611972968922	10.108710929050062	-2.55689904064321	3.8270809116783777	-17.439018055501165	-4.313129078990491	-5.947691332681378
1.85	5.570304757532533	2.667131354827633	-2.651678241338761	0.8411769392023223	-3.713865232608961	3.234523584337287	20.923501962813237	-2.2267457269973314	-3.8436578542950124	-2.2406433103144847	-0.5657307538353571	0.41039348315952984	2.6812321182220886	-25.87162289281484	6.930336497644161	4.174948573084929	-2.950220982551184	15.170560992500116	1.2836163843346933	-0.9867786038076797	-13.62335449863362	-4.2796554713074935	-7.28808173829029
1.867	9.586931304742997	2.6050162638964736	1.8765607456360034	0.6150902052145035	0.7807317377068974	-0.29283142876888446	20.027070040604315	-2.2616669445388284	-0.5219730920203265	0.23811992423388695	1.7912005776701934	-2.553060225736836	-0.640650619664078	-23.427307310881396	6.266670462646467	3.947643234388686	-5.451713139415723	14.614913233419017	0.4845226175974665	-1.0803606087612811	-16.094162413908176	-0.9427319076121106	-7.757480331271661
1.883	1.7684546125496658	-0.2972884174085837	-1.7013788099172111	-0.2036679925929381	0.0914878171058554	1.7645460098448313	20.07325528972899	-0.5124036104593293	-1.1001404843885316	-10.756470903493781	-0.16179965918787553	-0.021281116490880773	-0.30112364782892226	-24.57197209180367	5.261034035156014	5.666448596435173	-6.571543208956458	18.39077630088903	3.3263697135647443	-1.5923665617275657	-15.119170178878719	-5.344534964550915	-8.359626217833883
1.9	3.0919363348716615	1.9474434910916163	-1.2079143906672267	4.640963929005073	1.8507737409666198	1.4200812014810615	23.924705491013146	-1.7095738203531796	-1.1199865045448818	-9.596318133266081	1.4673831184558674	-3.4990549301289997	0.0962123536517989	-22.16780160931806	2.3647312416402366	4.100813231176705	-15.424478054348398	11.736560393647968	2.103740200901607	-0.9071686676990961	-9.630528675134055	-3.5728817889269697	-7.489170688957921
1.917	7.3187463755894395	4.399509716053675	-2.2000719174424046	-0.125696069080233	-2.8597665238617367	-0.09747333722014603	21.41144120983855	1.9852113558747875	-2.5720959603699134	-10.62489167463293	-4.470519430890763	3.589780259188548	1.4173382711194318	-22.305406737088997	-0.82875573742378	9.820245106598112	-11.780301653420429	17.584665448341642	-0.7396281329592895	-0.06468600980733318	-13.350032021691046	0.27040015105598403	-7.739809944109558
